<?xml version="1.0" encoding="utf-8"?>
<!-- Generator: Adobe Illustrator 23.0.1, SVG Export Plug-In . SVG Version: 6.00 Build 0)  -->
<svg version="1.1" id="Слой_1" xmlns="http://www.w3.org/2000/svg" xmlns:xlink="http://www.w3.org/1999/xlink" x="0px" y="0px"
	 viewBox="0 0 1125 2436" style="enable-background:new 0 0 1125 2436;" xml:space="preserve">
<style type="text/css">
	.st0{fill:#FFFFFF;stroke:#FFFFFF;stroke-width:65;stroke-miterlimit:10;}
	.st1{fill:none;stroke:#FFFFFF;stroke-width:65;stroke-miterlimit:10;}
	.st2{fill:none;stroke:#FFFFFF;stroke-width:10;stroke-miterlimit:10;}
</style>
<path class="st0" d="M518.76,1788.46"/>
<ellipse transform="matrix(9.907921e-03 -1 1 9.907921e-03 -619.4452 1783.387)" class="st1" cx="590.85" cy="1204.5" rx="1150.81" ry="428.77"/>
<ellipse transform="matrix(9.908400e-03 -1 1 9.908400e-03 -568.3744 1782.9346)" class="st1" cx="616.16" cy="1178.48" rx="173.16" ry="321.21"/>
<path class="st1" d="M331.1,1097.83c190.55,1.89,381.11,3.78,571.66,5.66"/>
<path class="st1" d="M903.54,996.49c3.94-140.04-8.76-311.81-63-502.61c-23.69-83.31-52.26-159.61-82.72-228.46"/>
<path class="st1" d="M457.29,258.56c-43.11,79.99-84.69,171.29-118.87,273.16c-56.95,169.74-78.08,323.3-82.81,450.57"/>
<path class="st1" d="M-4.34,450.49"/>
<path class="st1" d="M932.88,1335.33c-0.97,123.44-16.29,271.88-63.27,437.15C825.29,1928.36,763.1,2063,700.6,2173.56"/>
<path class="st1" d="M260.91,1340.35c-2.75,115.68,5.79,250.4,37.3,399.23c36.32,171.51,94.41,320.55,154.75,443.2"/>
<path class="st2" d="M-247.58,1800.32"/>
</svg>
