<?xml version="1.0" encoding="utf-8"?>
<!-- Generator: Adobe Illustrator 23.0.1, SVG Export Plug-In . SVG Version: 6.00 Build 0)  -->
<svg version="1.1" id="Слой_1" xmlns="http://www.w3.org/2000/svg" xmlns:xlink="http://www.w3.org/1999/xlink" x="0px" y="0px"
	 viewBox="0 0 1125 2436" style="enable-background:new 0 0 1125 2436;" xml:space="preserve">
<style type="text/css">
	.st0{fill:#FFFFFF;stroke:#FFFFFF;stroke-width:55;stroke-miterlimit:10;}
</style>
<polygon class="st0" points="891.87,301.32 848.18,280.39 204.9,2022.24 248.59,2043.18 "/>
<path class="st0" d="M237.24,298.09l-43.09,22.48c13.38,33.28,26.76,66.55,40.14,99.83c216.89,539.41,433.79,1078.83,650.68,1618.24
	c14.36-7.49,28.73-14.99,43.09-22.48L237.24,298.09z"/>
<path class="st0" d="M90,294.63"/>
<path class="st0" d="M229.98,357.63c32.99-16.33,24.99-103.57,22.98-125.49c-3.02-32.91-8.06-87.96-46.35-120.7
	c-7.29-6.23-34.77-29.73-64.44-20.16c-38.72,12.49-49.13,70.97-50.11,76.89c-11.81,71.45,42.63,129.47,57.55,145.38
	C165.27,330.23,203.35,370.81,229.98,357.63z"/>
<path class="st0" d="M894.11,1986.54c-34.01,13.35-31.99,101.04-31.49,123.08c0.76,33.08,2.03,88.41,37.96,124.45
	c6.84,6.86,32.63,32.72,62.86,25.81c39.46-9.02,53.83-66.4,55.21-72.21c16.65-70.18-33.66-132.86-47.45-150.04
	C956.75,2019.6,921.56,1975.76,894.11,1986.54z"/>
<path class="st0" d="M246.52,1986.95c-34.55-11.39-77.24,61.61-87.97,79.96c-16.11,27.54-43.04,73.61-31.89,126.64
	c2.12,10.09,10.13,48.16,38.34,62.34c36.82,18.51,77.58-18.96,81.65-22.81c49.1-46.45,39.66-130.69,37.08-153.78
	C281.01,2055.07,274.41,1996.15,246.52,1986.95z"/>
<path class="st0" d="M833.18,386.03c34.1,13.03,79.43-57.88,90.82-75.71c17.1-26.75,45.7-71.5,36.5-125.01
	c-1.75-10.19-8.36-48.6-36.02-64.11c-36.11-20.25-78.21,15.26-82.41,18.91C791.31,184.19,797.65,268.8,799.39,292
	C801.21,316.33,805.65,375.52,833.18,386.03z"/>
</svg>
