<?xml version="1.0" encoding="utf-8"?>
<!-- Generator: Adobe Illustrator 23.0.1, SVG Export Plug-In . SVG Version: 6.00 Build 0)  -->
<svg version="1.1" id="Слой_1" xmlns="http://www.w3.org/2000/svg" xmlns:xlink="http://www.w3.org/1999/xlink" x="0px" y="0px"
	 viewBox="0 0 1125 2436" style="enable-background:new 0 0 1125 2436;" xml:space="preserve">
<style type="text/css">
	.st0{fill:#FFFFFF;stroke:#FFFFFF;stroke-width:65;stroke-miterlimit:10;}
	.st1{fill:none;stroke:#FFFFFF;stroke-width:65;stroke-miterlimit:10;}
	.st2{fill:none;stroke:#FFFFFF;stroke-width:10;stroke-miterlimit:10;}
	.st3{fill:none;stroke:#FFFFFF;stroke-width:40;stroke-miterlimit:10;}
</style>
<path class="st0" d="M509.18,1802.3"/>
<ellipse transform="matrix(9.908008e-03 -1 1 9.908008e-03 -640.7213 1789.6241)" class="st1" cx="583.36" cy="1218.36" rx="1150.8" ry="442.26"/>
<path class="st1" d="M-30.79,464.17"/>
<path class="st2" d="M-86.58,1814.32"/>
<ellipse class="st1" cx="583" cy="1215.5" rx="309.5" ry="1034"/>
<path class="st1" d="M327.5,700.5"/>
<path class="st3" d="M860,852c-182.67,0-365.33,0-548,0c5.33-50.33,10.67-100.67,16-151c168.33,0,336.67,0,505,0
	C842,751.33,851,801.67,860,852z"/>
<path class="st3" d="M859,1672c-181.67,0-363.33,0-545,0c-8.67-47.67-17.33-95.33-26-143c194,0.5,388,1,582,1.5
	C866.33,1577.67,862.67,1624.83,859,1672z"/>
<path class="st3" d="M339,1117"/>
</svg>
